<svg xmlns="http://www.w3.org/2000/svg" xmlns:xlink="http://www.w3.org/1999/xlink" width="500" zoomAndPan="magnify" viewBox="0 0 375 374.999991" height="500" preserveAspectRatio="xMidYMid meet" version="1.0"><defs><clipPath id="74108cf2f6"><path d="M 70.28125 110.085938 L 158.453125 110.085938 L 158.453125 302.074219 L 70.28125 302.074219 Z M 70.28125 110.085938 " clip-rule="nonzero"/></clipPath><clipPath id="65dbc0666f"><path d="M 0.28125 0.0859375 L 88.453125 0.0859375 L 88.453125 192 L 0.28125 192 Z M 0.28125 0.0859375 " clip-rule="nonzero"/></clipPath><clipPath id="171b56d59f"><rect x="0" width="89" y="0" height="193"/></clipPath><clipPath id="867f5e7e95"><path d="M 114.222656 101.945312 L 337.722656 101.945312 L 337.722656 305.945312 L 114.222656 305.945312 Z M 114.222656 101.945312 " clip-rule="nonzero"/></clipPath><clipPath id="ed75ebee01"><path d="M 36 262 L 134 262 L 134 358 L 36 358 Z M 36 262 " clip-rule="nonzero"/></clipPath><clipPath id="d481e31aab"><path d="M 93.984375 262.320312 L 133.515625 309.652344 L 76.402344 357.351562 L 36.875 310.023438 Z M 93.984375 262.320312 " clip-rule="nonzero"/></clipPath><clipPath id="0e26e68c67"><path d="M 0.71875 0.320312 L 97.679688 0.320312 L 97.679688 95.359375 L 0.71875 95.359375 Z M 0.71875 0.320312 " clip-rule="nonzero"/></clipPath><clipPath id="5373c53b04"><path d="M 57.984375 0.320312 L 97.515625 47.652344 L 40.402344 95.351562 L 0.875 48.023438 Z M 57.984375 0.320312 " clip-rule="nonzero"/></clipPath><clipPath id="b5eafb9795"><rect x="0" width="98" y="0" height="96"/></clipPath><clipPath id="3cdbb0ae62"><path d="M 122.757812 17.648438 L 329 17.648438 L 329 301.898438 L 122.757812 301.898438 Z M 122.757812 17.648438 " clip-rule="nonzero"/></clipPath><clipPath id="bcbc70e3cc"><path d="M 113 178 L 265 178 L 265 329 L 113 329 Z M 113 178 " clip-rule="nonzero"/></clipPath><clipPath id="1e6cb46950"><path d="M 182.929688 357.347656 L 85.347656 259.765625 L 215.808594 129.304688 L 313.390625 226.886719 Z M 182.929688 357.347656 " clip-rule="nonzero"/></clipPath><clipPath id="4606957e38"><path d="M 182.929688 357.347656 L 85.347656 259.765625 L 215.808594 129.304688 L 313.390625 226.886719 Z M 182.929688 357.347656 " clip-rule="nonzero"/></clipPath><clipPath id="849e758348"><path d="M 25 84 L 140 84 L 140 303 L 25 303 Z M 25 84 " clip-rule="nonzero"/></clipPath><clipPath id="60bfb74168"><path d="M 68.261719 84.566406 L 139.039062 99.378906 L 96.625 302.074219 L 25.847656 287.265625 Z M 68.261719 84.566406 " clip-rule="nonzero"/></clipPath><clipPath id="b8635abf1a"><path d="M 0.679688 0.480469 L 114.199219 0.480469 L 114.199219 218.160156 L 0.679688 218.160156 Z M 0.679688 0.480469 " clip-rule="nonzero"/></clipPath><clipPath id="e29254f588"><path d="M 43.261719 0.566406 L 114.039062 15.378906 L 71.625 218.074219 L 0.847656 203.265625 Z M 43.261719 0.566406 " clip-rule="nonzero"/></clipPath><clipPath id="d6feb78fac"><rect x="0" width="115" y="0" height="219"/></clipPath></defs><g clip-path="url(#74108cf2f6)"><g transform="matrix(1, 0, 0, 1, 70, 110)"><g clip-path="url(#171b56d59f)"><g clip-path="url(#65dbc0666f)"><path fill="#ffe800" d="M 0.28125 0.0859375 L 88.453125 0.0859375 L 88.453125 191.929688 L 0.28125 191.929688 Z M 0.28125 0.0859375 " fill-opacity="1" fill-rule="nonzero"/></g></g></g></g><g clip-path="url(#867f5e7e95)"><path fill="#fff9f3" d="M 225.855469 -1.660156 C 194 -1.660156 168.117188 24.226562 168.117188 56.082031 L 168.117188 83.027344 L 183.511719 83.027344 L 183.511719 56.082031 C 183.511719 32.488281 202.265625 13.738281 225.855469 13.738281 C 249.449219 13.738281 268.199219 32.488281 268.199219 56.082031 L 268.199219 83.027344 L 283.597656 83.027344 L 283.597656 56.082031 C 283.597656 24.226562 257.710938 -1.660156 225.855469 -1.660156 Z M 133.472656 98.425781 L 114.222656 306.292969 L 337.488281 306.292969 L 318.242188 98.425781 Z M 133.472656 98.425781 " fill-opacity="1" fill-rule="nonzero"/></g><g clip-path="url(#ed75ebee01)"><g clip-path="url(#d481e31aab)"><g transform="matrix(1, 0, 0, 1, 36, 262)"><g clip-path="url(#b5eafb9795)"><g clip-path="url(#0e26e68c67)"><g clip-path="url(#5373c53b04)"><path fill="#ffffff" d="M 57.984375 0.320312 L 97.515625 47.652344 L 40.386719 95.367188 L 0.855469 48.035156 Z M 57.984375 0.320312 " fill-opacity="1" fill-rule="nonzero"/></g></g></g></g></g></g><g clip-path="url(#3cdbb0ae62)"><path fill="#ffe800" d="M 225.859375 17.652344 C 196.4375 17.652344 172.53125 41.558594 172.53125 70.980469 L 172.53125 95.867188 L 186.75 95.867188 L 186.75 70.980469 C 186.75 49.191406 204.070312 31.871094 225.859375 31.871094 C 247.648438 31.871094 264.964844 49.191406 264.964844 70.980469 L 264.964844 95.867188 L 279.1875 95.867188 L 279.1875 70.980469 C 279.1875 41.558594 255.277344 17.652344 225.859375 17.652344 Z M 140.53125 110.085938 L 122.757812 302.070312 L 328.960938 302.070312 L 311.183594 110.085938 Z M 140.53125 110.085938 " fill-opacity="1" fill-rule="nonzero"/></g><g clip-path="url(#bcbc70e3cc)"><g clip-path="url(#1e6cb46950)"><g clip-path="url(#4606957e38)"><path fill="#ffffff" d="M 180.613281 221.574219 L 113.957031 288.230469 L 154.300781 328.574219 L 220.957031 261.917969 L 249.65625 290.617188 L 264.296875 178.234375 L 151.914062 192.875 Z M 180.613281 221.574219 " fill-opacity="1" fill-rule="nonzero"/></g></g></g><g clip-path="url(#849e758348)"><g clip-path="url(#60bfb74168)"><g transform="matrix(1, 0, 0, 1, 25, 84)"><g clip-path="url(#d6feb78fac)"><g clip-path="url(#b8635abf1a)"><g clip-path="url(#e29254f588)"><path fill="#ffffff" d="M 43.261719 0.566406 L 114.039062 15.378906 L 71.632812 218.027344 L 0.859375 203.21875 Z M 43.261719 0.566406 " fill-opacity="1" fill-rule="nonzero"/></g></g></g></g></g></g></svg>