<svg xmlns="http://www.w3.org/2000/svg" xmlns:xlink="http://www.w3.org/1999/xlink" width="500" zoomAndPan="magnify" viewBox="0 0 375 374.999991" height="500" preserveAspectRatio="xMidYMid meet" version="1.0"><defs><g/><clipPath id="c2d0c13a9f"><path d="M 86.460938 115 L 144.980469 115 L 144.980469 242.425781 L 86.460938 242.425781 Z M 86.460938 115 " clip-rule="nonzero"/></clipPath><clipPath id="9a6cb4be3f"><path d="M 0.460938 0 L 58.980469 0 L 58.980469 127.425781 L 0.460938 127.425781 Z M 0.460938 0 " clip-rule="nonzero"/></clipPath><clipPath id="b7cf692448"><rect x="0" width="59" y="0" height="128"/></clipPath><clipPath id="9d5feaef65"><path d="M 115.628906 109.597656 L 264 109.597656 L 264 245.347656 L 115.628906 245.347656 Z M 115.628906 109.597656 " clip-rule="nonzero"/></clipPath><clipPath id="e83e8120b0"><path d="M 64 216 L 129 216 L 129 280 L 64 280 Z M 64 216 " clip-rule="nonzero"/></clipPath><clipPath id="3fa57abbb5"><path d="M 102.195312 216.042969 L 128.429688 247.457031 L 90.523438 279.117188 L 64.289062 247.703125 Z M 102.195312 216.042969 " clip-rule="nonzero"/></clipPath><clipPath id="2fe80bdb4a"><path d="M 0.078125 0 L 64.640625 0 L 64.640625 63.121094 L 0.078125 63.121094 Z M 0.078125 0 " clip-rule="nonzero"/></clipPath><clipPath id="49d036f9a8"><path d="M 38.195312 0.0429688 L 64.429688 31.457031 L 26.523438 63.117188 L 0.289062 31.703125 Z M 38.195312 0.0429688 " clip-rule="nonzero"/></clipPath><clipPath id="b57ba0c73e"><rect x="0" width="65" y="0" height="64"/></clipPath><clipPath id="debcb400fe"><path d="M 121.289062 53.648438 L 257.789062 53.648438 L 257.789062 242.648438 L 121.289062 242.648438 Z M 121.289062 53.648438 " clip-rule="nonzero"/></clipPath><clipPath id="af8e3cc09a"><path d="M 115 160 L 216 160 L 216 261 L 115 261 Z M 115 160 " clip-rule="nonzero"/></clipPath><clipPath id="156278a502"><path d="M 161.230469 279.105469 L 96.53125 214.40625 L 182.976562 127.960938 L 247.675781 192.660156 Z M 161.230469 279.105469 " clip-rule="nonzero"/></clipPath><clipPath id="6bced3e158"><path d="M 161.230469 279.105469 L 96.53125 214.40625 L 182.976562 127.960938 L 247.675781 192.660156 Z M 161.230469 279.105469 " clip-rule="nonzero"/></clipPath><clipPath id="7e282f95bc"><path d="M 56 98 L 133 98 L 133 243 L 56 243 Z M 56 98 " clip-rule="nonzero"/></clipPath><clipPath id="ce3821ad73"><path d="M 85.121094 98.0625 L 132.097656 107.894531 L 103.945312 242.425781 L 56.96875 232.597656 Z M 85.121094 98.0625 " clip-rule="nonzero"/></clipPath><clipPath id="6d6076d4db"><path d="M 0.878906 0 L 76.238281 0 L 76.238281 144.640625 L 0.878906 144.640625 Z M 0.878906 0 " clip-rule="nonzero"/></clipPath><clipPath id="b812c62d40"><path d="M 29.121094 0.0625 L 76.097656 9.894531 L 47.945312 144.425781 L 0.96875 134.597656 Z M 29.121094 0.0625 " clip-rule="nonzero"/></clipPath><clipPath id="80a38e9469"><rect x="0" width="77" y="0" height="145"/></clipPath><clipPath id="8b8cd94549"><rect x="0" width="354" y="0" height="45"/></clipPath><clipPath id="8cfccfc3b1"><rect x="0" width="89" y="0" height="15"/></clipPath></defs><g clip-path="url(#c2d0c13a9f)"><g transform="matrix(1, 0, 0, 1, 86, 115)"><g clip-path="url(#b7cf692448)"><g clip-path="url(#9a6cb4be3f)"><path fill="#ffe800" d="M 0.460938 0 L 58.980469 0 L 58.980469 127.332031 L 0.460938 127.332031 Z M 0.460938 0 " fill-opacity="1" fill-rule="nonzero"/></g></g></g></g><g clip-path="url(#9d5feaef65)"><path fill="#fff9f3" d="M 189.71875 40.835938 C 168.578125 40.835938 151.394531 58.015625 151.394531 79.160156 L 151.394531 97.042969 L 161.617188 97.042969 L 161.617188 79.160156 C 161.617188 63.5 174.0625 51.054688 189.71875 51.054688 C 205.378906 51.054688 217.824219 63.5 217.824219 79.160156 L 217.824219 97.042969 L 228.042969 97.042969 L 228.042969 79.160156 C 228.042969 58.015625 210.863281 40.835938 189.71875 40.835938 Z M 128.402344 107.261719 L 115.628906 245.226562 L 263.8125 245.226562 L 251.035156 107.261719 Z M 128.402344 107.261719 " fill-opacity="1" fill-rule="nonzero"/></g><g clip-path="url(#e83e8120b0)"><g clip-path="url(#3fa57abbb5)"><g transform="matrix(1, 0, 0, 1, 64, 216)"><g clip-path="url(#b57ba0c73e)"><g clip-path="url(#2fe80bdb4a)"><g clip-path="url(#49d036f9a8)"><path fill="#ffffff" d="M 38.195312 0.0429688 L 64.429688 31.457031 L 26.515625 63.125 L 0.277344 31.710938 Z M 38.195312 0.0429688 " fill-opacity="1" fill-rule="nonzero"/></g></g></g></g></g></g><g clip-path="url(#debcb400fe)"><path fill="#ffe800" d="M 189.722656 53.648438 C 170.195312 53.648438 154.328125 69.515625 154.328125 89.042969 L 154.328125 105.5625 L 163.765625 105.5625 L 163.765625 89.042969 C 163.765625 74.582031 175.261719 63.085938 189.722656 63.085938 C 204.183594 63.085938 215.679688 74.582031 215.679688 89.042969 L 215.679688 105.5625 L 225.117188 105.5625 L 225.117188 89.042969 C 225.117188 69.515625 209.25 53.648438 189.722656 53.648438 Z M 133.089844 115 L 121.289062 242.425781 L 258.152344 242.425781 L 246.355469 115 Z M 133.089844 115 " fill-opacity="1" fill-rule="nonzero"/></g><g clip-path="url(#af8e3cc09a)"><g clip-path="url(#156278a502)"><g clip-path="url(#6bced3e158)"><path fill="#ffffff" d="M 159.691406 188.992188 L 115.449219 233.234375 L 142.226562 260.011719 L 186.46875 215.769531 L 205.519531 234.820312 L 215.234375 160.226562 L 140.644531 169.945312 Z M 159.691406 188.992188 " fill-opacity="1" fill-rule="nonzero"/></g></g></g><g clip-path="url(#7e282f95bc)"><g clip-path="url(#ce3821ad73)"><g transform="matrix(1, 0, 0, 1, 56, 98)"><g clip-path="url(#80a38e9469)"><g clip-path="url(#6d6076d4db)"><g clip-path="url(#b812c62d40)"><path fill="#ffffff" d="M 29.121094 0.0625 L 76.097656 9.894531 L 47.953125 144.394531 L 0.976562 134.566406 Z M 29.121094 0.0625 " fill-opacity="1" fill-rule="nonzero"/></g></g></g></g></g></g><g transform="matrix(1, 0, 0, 1, 12, 261)"><g clip-path="url(#8b8cd94549)"><g fill="#000000" fill-opacity="1"><g transform="translate(1.453076, 35.96332)"><g><path d="M 15.71875 0 L 3.296875 0 L 3.296875 -29.609375 L 15.71875 -29.609375 Z M 15.71875 0 "/></g></g></g><g fill="#000000" fill-opacity="1"><g transform="translate(20.475928, 35.96332)"><g><path d="M 47.234375 0 L 32.46875 0 L 15.71875 -20.03125 L 15.71875 0 L 3.296875 0 L 3.296875 -29.609375 L 18.078125 -29.609375 L 34.8125 -9.671875 L 34.8125 -29.609375 L 47.234375 -29.609375 Z M 47.234375 0 "/></g></g></g><g fill="#000000" fill-opacity="1"><g transform="translate(71.00409, 35.96332)"><g><path d="M 25.265625 0 L 12.84375 0 L 12.84375 -22.28125 L 1.234375 -22.28125 L 1.234375 -29.609375 L 36.859375 -29.609375 L 36.859375 -22.28125 L 25.265625 -22.28125 Z M 25.265625 0 "/></g></g></g><g fill="#000000" fill-opacity="1"><g transform="translate(109.091058, 35.96332)"><g><path d="M 43.734375 0 L 31.984375 0 C 31.453125 -0.738281 31.078125 -1.6875 30.859375 -2.84375 C 30.660156 -3.738281 30.367188 -4.613281 29.984375 -5.46875 C 29.597656 -6.332031 28.929688 -7.050781 27.984375 -7.625 C 27.046875 -8.195312 25.648438 -8.503906 23.796875 -8.546875 L 15.71875 -8.546875 L 15.71875 0 L 3.296875 0 L 3.296875 -29.609375 L 23.5 -29.609375 C 28.332031 -29.609375 32.226562 -29.25 35.1875 -28.53125 C 38.15625 -27.8125 40.320312 -26.675781 41.6875 -25.125 C 43.050781 -23.570312 43.734375 -21.550781 43.734375 -19.0625 C 43.734375 -16.988281 43.257812 -15.242188 42.3125 -13.828125 C 41.375 -12.410156 39.882812 -11.289062 37.84375 -10.46875 C 39.8125 -9.65625 41.085938 -8.679688 41.671875 -7.546875 C 42.253906 -6.410156 42.617188 -5.160156 42.765625 -3.796875 C 42.898438 -2.585938 43.222656 -1.320312 43.734375 0 Z M 15.71875 -15.84375 L 22.828125 -15.875 C 24.804688 -15.875 26.363281 -15.960938 27.5 -16.140625 C 28.644531 -16.316406 29.488281 -16.554688 30.03125 -16.859375 C 30.582031 -17.171875 30.929688 -17.515625 31.078125 -17.890625 C 31.234375 -18.273438 31.3125 -18.664062 31.3125 -19.0625 C 31.3125 -19.46875 31.234375 -19.863281 31.078125 -20.25 C 30.929688 -20.632812 30.582031 -20.976562 30.03125 -21.28125 C 29.488281 -21.59375 28.644531 -21.835938 27.5 -22.015625 C 26.363281 -22.191406 24.804688 -22.28125 22.828125 -22.28125 L 15.71875 -22.28125 Z M 15.71875 -15.84375 "/></g></g></g><g fill="#000000" fill-opacity="1"><g transform="translate(154.46118, 35.96332)"><g><path d="M 49.734375 0 L 37.140625 0 L 34.359375 -4.84375 L 15.6875 -4.84375 L 12.90625 0 L 0.3125 0 L 19.25 -29.59375 L 30.796875 -29.59375 Z M 30.171875 -12.171875 L 25.03125 -21.15625 L 19.875 -12.171875 Z M 30.171875 -12.171875 "/></g></g></g><g fill="#000000" fill-opacity="1"><g transform="translate(204.49417, 35.96332)"><g><path d="M 51.921875 0 L 35.78125 0 L 23.078125 -9.90625 L 15.71875 -4.890625 L 15.71875 0 L 3.296875 0 L 3.296875 -29.609375 L 15.71875 -29.609375 L 15.71875 -15.90625 L 35.65625 -29.609375 L 51.921875 -29.609375 L 30.703125 -15.125 Z M 51.921875 0 "/></g></g></g><g fill="#000000" fill-opacity="1"><g transform="translate(256.714169, 35.96332)"><g><path d="M 28.890625 0 L 16.46875 0 L 16.46875 -14.03125 L 0.3125 -29.609375 L 14.078125 -29.609375 L 22.6875 -20.765625 L 31.265625 -29.609375 L 45.03125 -29.609375 L 28.890625 -14.03125 Z M 28.890625 0 "/></g></g></g><g fill="#000000" fill-opacity="1"><g transform="translate(302.043041, 35.96332)"><g><path d="M 49.734375 0 L 37.140625 0 L 34.359375 -4.84375 L 15.6875 -4.84375 L 12.90625 0 L 0.3125 0 L 19.25 -29.59375 L 30.796875 -29.59375 Z M 30.171875 -12.171875 L 25.03125 -21.15625 L 19.875 -12.171875 Z M 30.171875 -12.171875 "/></g></g></g></g></g><g transform="matrix(1, 0, 0, 1, 146, 307)"><g clip-path="url(#8cfccfc3b1)"><g fill="#25325b" fill-opacity="1"><g transform="translate(2.517534, 10.766399)"><g><path d="M 6.15625 -1.703125 L 2.484375 -1.703125 L 1.78125 0 L -0.109375 0 L 3.4375 -7.9375 L 5.25 -7.9375 L 8.796875 0 L 6.859375 0 Z M 5.578125 -3.09375 L 4.328125 -6.125 L 3.0625 -3.09375 Z M 5.578125 -3.09375 "/></g></g></g><g fill="#25325b" fill-opacity="1"><g transform="translate(16.294302, 10.766399)"><g><path d="M 0.9375 -7.9375 L 2.78125 -7.9375 L 2.78125 -1.5 L 6.75 -1.5 L 6.75 0 L 0.9375 0 Z M 0.9375 -7.9375 "/></g></g></g><g fill="#25325b" fill-opacity="1"><g transform="translate(28.236124, 10.766399)"><g><path d="M 7.03125 0.140625 L 6.078125 -0.75 C 5.328125 -0.15625 4.445312 0.140625 3.4375 0.140625 C 2.863281 0.140625 2.34375 0.046875 1.875 -0.140625 C 1.414062 -0.328125 1.054688 -0.585938 0.796875 -0.921875 C 0.535156 -1.253906 0.40625 -1.628906 0.40625 -2.046875 C 0.40625 -2.535156 0.539062 -2.960938 0.8125 -3.328125 C 1.09375 -3.703125 1.539062 -4.0625 2.15625 -4.40625 C 1.863281 -4.695312 1.65625 -4.976562 1.53125 -5.25 C 1.40625 -5.519531 1.34375 -5.796875 1.34375 -6.078125 C 1.34375 -6.460938 1.441406 -6.800781 1.640625 -7.09375 C 1.847656 -7.394531 2.132812 -7.625 2.5 -7.78125 C 2.875 -7.945312 3.3125 -8.03125 3.8125 -8.03125 C 4.5 -8.03125 5.046875 -7.863281 5.453125 -7.53125 C 5.867188 -7.207031 6.078125 -6.765625 6.078125 -6.203125 C 6.078125 -5.796875 5.953125 -5.429688 5.703125 -5.109375 C 5.460938 -4.796875 5.070312 -4.492188 4.53125 -4.203125 L 5.984375 -2.859375 C 6.148438 -3.222656 6.28125 -3.632812 6.375 -4.09375 L 7.796875 -3.640625 C 7.640625 -2.941406 7.394531 -2.34375 7.0625 -1.84375 L 8 -0.984375 Z M 3.8125 -6.828125 C 3.539062 -6.828125 3.328125 -6.757812 3.171875 -6.625 C 3.023438 -6.488281 2.953125 -6.316406 2.953125 -6.109375 C 2.953125 -5.953125 2.988281 -5.800781 3.0625 -5.65625 C 3.144531 -5.519531 3.3125 -5.332031 3.5625 -5.09375 C 3.945312 -5.300781 4.210938 -5.484375 4.359375 -5.640625 C 4.515625 -5.804688 4.59375 -5.984375 4.59375 -6.171875 C 4.59375 -6.367188 4.523438 -6.523438 4.390625 -6.640625 C 4.253906 -6.765625 4.0625 -6.828125 3.8125 -6.828125 Z M 3.5625 -1.25 C 4.113281 -1.25 4.609375 -1.398438 5.046875 -1.703125 L 3.125 -3.5 C 2.769531 -3.289062 2.515625 -3.085938 2.359375 -2.890625 C 2.210938 -2.703125 2.140625 -2.484375 2.140625 -2.234375 C 2.140625 -1.941406 2.265625 -1.703125 2.515625 -1.515625 C 2.773438 -1.335938 3.125 -1.25 3.5625 -1.25 Z M 3.5625 -1.25 "/></g></g></g><g fill="#25325b" fill-opacity="1"><g transform="translate(41.582482, 10.766399)"><g><path d="M 3.546875 0.140625 C 2.921875 0.140625 2.3125 0.0546875 1.71875 -0.109375 C 1.132812 -0.285156 0.664062 -0.507812 0.3125 -0.78125 L 0.9375 -2.15625 C 1.28125 -1.914062 1.6875 -1.71875 2.15625 -1.5625 C 2.625 -1.414062 3.09375 -1.34375 3.5625 -1.34375 C 4.082031 -1.34375 4.46875 -1.414062 4.71875 -1.5625 C 4.96875 -1.71875 5.09375 -1.925781 5.09375 -2.1875 C 5.09375 -2.375 5.015625 -2.53125 4.859375 -2.65625 C 4.710938 -2.78125 4.523438 -2.878906 4.296875 -2.953125 C 4.066406 -3.023438 3.753906 -3.109375 3.359375 -3.203125 C 2.753906 -3.347656 2.257812 -3.492188 1.875 -3.640625 C 1.488281 -3.785156 1.15625 -4.015625 0.875 -4.328125 C 0.601562 -4.640625 0.46875 -5.0625 0.46875 -5.59375 C 0.46875 -6.050781 0.59375 -6.46875 0.84375 -6.84375 C 1.09375 -7.21875 1.46875 -7.515625 1.96875 -7.734375 C 2.476562 -7.953125 3.09375 -8.0625 3.8125 -8.0625 C 4.320312 -8.0625 4.816406 -8 5.296875 -7.875 C 5.785156 -7.757812 6.210938 -7.585938 6.578125 -7.359375 L 6 -5.96875 C 5.269531 -6.382812 4.539062 -6.59375 3.8125 -6.59375 C 3.289062 -6.59375 2.90625 -6.507812 2.65625 -6.34375 C 2.414062 -6.175781 2.296875 -5.957031 2.296875 -5.6875 C 2.296875 -5.414062 2.4375 -5.210938 2.71875 -5.078125 C 3.007812 -4.941406 3.441406 -4.8125 4.015625 -4.6875 C 4.617188 -4.539062 5.113281 -4.394531 5.5 -4.25 C 5.882812 -4.113281 6.210938 -3.890625 6.484375 -3.578125 C 6.765625 -3.265625 6.90625 -2.847656 6.90625 -2.328125 C 6.90625 -1.867188 6.78125 -1.453125 6.53125 -1.078125 C 6.28125 -0.703125 5.898438 -0.40625 5.390625 -0.1875 C 4.890625 0.03125 4.273438 0.140625 3.546875 0.140625 Z M 3.546875 0.140625 "/></g></g></g><g fill="#25325b" fill-opacity="1"><g transform="translate(53.909417, 10.766399)"><g><path d="M 6.15625 -1.703125 L 2.484375 -1.703125 L 1.78125 0 L -0.109375 0 L 3.4375 -7.9375 L 5.25 -7.9375 L 8.796875 0 L 6.859375 0 Z M 5.578125 -3.09375 L 4.328125 -6.125 L 3.0625 -3.09375 Z M 5.578125 -3.09375 "/></g></g></g><g fill="#25325b" fill-opacity="1"><g transform="translate(67.686185, 10.766399)"><g><path d="M 2.578125 -6.4375 L 0.046875 -6.4375 L 0.046875 -7.9375 L 6.953125 -7.9375 L 6.953125 -6.4375 L 4.421875 -6.4375 L 4.421875 0 L 2.578125 0 Z M 2.578125 -6.4375 "/></g></g></g><g fill="#25325b" fill-opacity="1"><g transform="translate(79.798938, 10.766399)"><g/></g></g></g></g></svg>